<svg xmlns="http://www.w3.org/2000/svg" viewBox="0 0 173.51 102.35"><defs><style>.cls-1{fill:#466320;}.cls-2{fill:#8bc53f;}.cls-3{fill:#233110;}.cls-4{fill:#68942f;}.cls-5{fill:#1c270d;}.cls-6{fill:#384f19;}.cls-7{fill:#537626;}.cls-8{fill:#6f9e32;}</style></defs><g id="Layer_2" data-name="Layer 2"><g id="Layer_1-2" data-name="Layer 1"><rect x="0.09" y="86.9" width="41.86" height="15.29" rx="5.57" transform="translate(-1.03 0.23) rotate(-0.62)"/><rect class="cls-1" x="0.04" y="69.64" width="41.86" height="15.29" rx="6.61" transform="translate(-0.84 0.23) rotate(-0.62)"/><rect class="cls-2" y="52.38" width="41.86" height="15.29" rx="7.64" transform="translate(-0.65 0.23) rotate(-0.62)"/><rect x="43.88" y="87.23" width="41.86" height="14.74" rx="4.6" transform="translate(-1.03 0.71) rotate(-0.62)"/><rect class="cls-3" x="43.85" y="70.43" width="41.86" height="14.74" rx="5.3" transform="matrix(1, -0.01, 0.01, 1, -0.84, 0.71)"/><rect class="cls-1" x="43.82" y="53.63" width="41.86" height="14.74" rx="5.99" transform="translate(-0.66 0.71) rotate(-0.62)"/><rect class="cls-4" x="43.79" y="36.84" width="41.86" height="14.74" rx="6.68" transform="translate(-0.48 0.71) rotate(-0.62)"/><rect class="cls-2" x="43.76" y="20.04" width="41.86" height="14.74" rx="7.37" transform="translate(-0.3 0.71) rotate(-0.62)"/><rect x="88.09" y="86.49" width="41.86" height="15.29" rx="5.17" transform="translate(-1.02 1.19) rotate(-0.62)"/><rect class="cls-5" x="87.96" y="69.22" width="41.86" height="15.29" rx="5.67" transform="matrix(1, -0.01, 0.01, 1, -0.83, 1.19)"/><rect class="cls-6" x="87.83" y="51.95" width="41.86" height="15.29" rx="6.16" transform="translate(-0.64 1.19) rotate(-0.62)"/><rect class="cls-7" x="87.7" y="34.68" width="41.86" height="15.29" rx="6.66" transform="translate(-0.46 1.19) rotate(-0.62)"/><rect class="cls-8" x="87.57" y="17.41" width="41.86" height="15.29" rx="7.15" transform="translate(-0.27 1.18) rotate(-0.62)"/><rect class="cls-2" x="87.44" y="0.14" width="41.86" height="15.29" rx="7.64" transform="translate(-0.08 1.18) rotate(-0.62)"/><rect x="131.64" y="86.3" width="41.86" height="15.29" rx="6.33" transform="translate(-1.02 1.67) rotate(-0.62)"/><rect class="cls-1" x="131.54" y="69.22" width="41.86" height="15.29" rx="6.99" transform="translate(-0.83 1.67) rotate(-0.62)"/><rect class="cls-2" x="131.44" y="52.14" width="41.86" height="15.29" rx="7.64" transform="translate(-0.64 1.67) rotate(-0.62)"/></g></g></svg>