<svg xmlns="http://www.w3.org/2000/svg" viewBox="0 0 354.5 111.13"><defs><style>.cls-1{fill:none;}.cls-2{fill:#fff;}.cls-3{font-size:50.91px;font-family:SegoeUI-Semibold, Segoe UI;font-weight:600;letter-spacing:0.13em;}.cls-3,.cls-7{fill:#8bc53f;}.cls-4{letter-spacing:0.12em;}.cls-5{letter-spacing:0.13em;}.cls-6{fill:#466320;}.cls-8{fill:#233110;}.cls-9{fill:#68942f;}.cls-10{fill:#1c270d;}.cls-11{fill:#384f19;}.cls-12{fill:#537626;}.cls-13{fill:#6f9e32;}</style></defs><g id="Layer_2" data-name="Layer 2"><g id="Layer_1-2" data-name="Layer 1"><rect class="cls-1" x="93.58" width="42" height="16" rx="8"/><path class="cls-2" d="M149.31,41.84h-9.6V11.29A8.57,8.57,0,0,0,139,7.41a1.79,1.79,0,0,0-3.43,0,9,9,0,0,0-.64,3.87V43.62a8.59,8.59,0,0,0,.68,4,2.34,2.34,0,0,0,2.22,1.23h11.44a2,2,0,0,0,1.77-1,4.6,4.6,0,0,0,.61-2.51,4.75,4.75,0,0,0-.62-2.52A1.94,1.94,0,0,0,149.31,41.84Z" transform="translate(0)"/><path class="cls-2" d="M157.33,6.13a1.94,1.94,0,0,0-1.69,1.29,9,9,0,0,0-.65,3.87V44.36a8.88,8.88,0,0,0,.66,3.88c.44.87,1,1.3,1.68,1.3a2,2,0,0,0,1.74-1.28,8.89,8.89,0,0,0,.66-3.9V11.29a8.73,8.73,0,0,0-.66-3.88A2,2,0,0,0,157.33,6.13Z" transform="translate(0)"/><path class="cls-2" d="M182.46,6.9a1.77,1.77,0,0,0-1.57,1.22,8.79,8.79,0,0,0-.58,3.65v25L171.2,12l-.74-2.09a11.53,11.53,0,0,0-.71-1.63,3.13,3.13,0,0,0-.79-1,1.69,1.69,0,0,0-1.1-.38,2,2,0,0,0-1.51.82,4.91,4.91,0,0,0-1,2.1,16.2,16.2,0,0,0-.25,3.24V45.45a8.61,8.61,0,0,0,.6,3.62,1.66,1.66,0,0,0,3.21,0,8.23,8.23,0,0,0,.62-3.63V20.85l8.89,24.45c.25.67.51,1.33.76,2a11.81,11.81,0,0,0,.83,1.67A3.31,3.31,0,0,0,181,50a2.15,2.15,0,0,0,1.15.33c1.7,0,2.55-1.85,2.55-5.53v-33a8.6,8.6,0,0,0-.59-3.65A1.8,1.8,0,0,0,182.46,6.9Z" transform="translate(0)"/><path class="cls-2" d="M203.09,7.65a9.81,9.81,0,0,0-4.13-.8h-6.18a2.36,2.36,0,0,0-2.22,1.23,8.72,8.72,0,0,0-.68,4V42.84a22.57,22.57,0,0,0,.2,3.31,3.69,3.69,0,0,0,.85,2,2.58,2.58,0,0,0,1.95.7h6.17a10.74,10.74,0,0,0,2.9-.37,6.86,6.86,0,0,0,2.4-1.29,9.79,9.79,0,0,0,2.06-2.44,19.94,19.94,0,0,0,2-4.48,31.82,31.82,0,0,0,1.13-5.63,58.18,58.18,0,0,0,.37-6.9q0-11.44-3.66-17.06A7.66,7.66,0,0,0,203.09,7.65Zm-.4,32.44a4,4,0,0,1-1.24,1.29,3.86,3.86,0,0,1-1.39.58,12.59,12.59,0,0,1-1.85.11h-3.59V13.58h3.12a7.65,7.65,0,0,1,3.71.84c1,.56,1.88,1.88,2.57,3.94a30.85,30.85,0,0,1,1,9.31Q205.07,36.49,202.69,40.09Z" transform="translate(0)"/><path class="cls-2" d="M257.18,27.09a4,4,0,0,0-1.68-.31h-5.37a1.72,1.72,0,0,0-1.54.91A4.36,4.36,0,0,0,248,30a3.52,3.52,0,0,0,.68,2.44,2.65,2.65,0,0,0,2,.71h3.67V40a13.19,13.19,0,0,1-2.93,2.2,6.38,6.38,0,0,1-3.08.78q-3.39,0-5.28-4t-1.89-11.37a36.08,36.08,0,0,1,.49-6.22,18.19,18.19,0,0,1,1.4-4.73,8,8,0,0,1,2.21-2.95,4.61,4.61,0,0,1,2.94-1,4,4,0,0,1,2.62.86,6.26,6.26,0,0,1,1.64,2.12c.4.84.9,2.08,1.48,3.72a3.22,3.22,0,0,0,.79,1.2,1.42,1.42,0,0,0,1,.43,1.87,1.87,0,0,0,1.59-1.13,5.31,5.31,0,0,0,.66-2.73,12.12,12.12,0,0,0-.57-3.41,13.89,13.89,0,0,0-1.71-3.64,9.68,9.68,0,0,0-3-2.85,7.79,7.79,0,0,0-4.18-1.13,9,9,0,0,0-5.14,1.51A12.1,12.1,0,0,0,239.6,12a23.74,23.74,0,0,0-2.4,6.9,46.07,46.07,0,0,0-.81,9,44.42,44.42,0,0,0,.84,9,24.66,24.66,0,0,0,2.4,6.87,12.16,12.16,0,0,0,3.78,4.33,8.65,8.65,0,0,0,4.91,1.48,9.72,9.72,0,0,0,4.28-.94,15.75,15.75,0,0,0,4.08-3,7.54,7.54,0,0,0,1.21-1.49,4.92,4.92,0,0,0,.64-1.73,14.46,14.46,0,0,0,.18-2.56v-8a9.54,9.54,0,0,0-.42-3.26A2.45,2.45,0,0,0,257.18,27.09Z" transform="translate(0)"/><path class="cls-2" d="M275.17,14.06c-.28-1.35-.52-2.43-.71-3.25a15.9,15.9,0,0,0-.68-2.27,5,5,0,0,0-1.07-1.74,2.35,2.35,0,0,0-3.29,0,5,5,0,0,0-1.07,1.77,20.3,20.3,0,0,0-.76,2.73L267,14.12l-6,27.26c-.24,1.09-.42,1.94-.53,2.55a11,11,0,0,0-.16,1.78,5.15,5.15,0,0,0,.69,2.66c.46.78,1,1.17,1.58,1.17a1.57,1.57,0,0,0,1.52-1.1,27.66,27.66,0,0,0,1.11-4.25l1.12-5.38h9.51l1.11,5.26q.22,1,.54,2.25a11.56,11.56,0,0,0,.58,1.89,2.78,2.78,0,0,0,.67,1,1.37,1.37,0,0,0,1,.35,1.92,1.92,0,0,0,1.63-1.21,5.47,5.47,0,0,0,.68-2.68,22.59,22.59,0,0,0-.72-4.5Zm-7.61,18.36L271,15.09l3.53,17.33Z" transform="translate(0)"/><path class="cls-2" d="M298.67,14.06c-.29-1.35-.52-2.43-.71-3.25a15.9,15.9,0,0,0-.68-2.27,5.14,5.14,0,0,0-1.07-1.74,2.35,2.35,0,0,0-3.29,0,5,5,0,0,0-1.07,1.77,18.92,18.92,0,0,0-.76,2.73l-.62,2.82-6,27.26c-.25,1.09-.42,1.94-.53,2.55a11,11,0,0,0-.16,1.78,5.15,5.15,0,0,0,.69,2.66c.46.78,1,1.17,1.58,1.17a1.55,1.55,0,0,0,1.51-1.1,27.32,27.32,0,0,0,1.12-4.25l1.12-5.38h9.51l1.11,5.26q.22,1,.54,2.25a11.56,11.56,0,0,0,.58,1.89,2.78,2.78,0,0,0,.67,1,1.35,1.35,0,0,0,1,.35,1.93,1.93,0,0,0,1.63-1.21,5.47,5.47,0,0,0,.68-2.68,22.59,22.59,0,0,0-.72-4.5Zm-7.61,18.36,3.46-17.33,3.53,17.33Z" transform="translate(0)"/><path class="cls-2" d="M326.5,38.42a41.78,41.78,0,0,0-2.05-5A12.41,12.41,0,0,0,322,29.87a8.34,8.34,0,0,0,4.48-4,16.23,16.23,0,0,0,1.47-7.5,20.15,20.15,0,0,0-.44-4.34,13.3,13.3,0,0,0-1.28-3.59,7.07,7.07,0,0,0-1.95-2.38,4.63,4.63,0,0,0-2-1,13.3,13.3,0,0,0-2.73-.24h-7.7a2.36,2.36,0,0,0-2.22,1.23,8.56,8.56,0,0,0-.69,4v32.3a9.3,9.3,0,0,0,.63,3.87,1.93,1.93,0,0,0,1.75,1.31A2,2,0,0,0,313,48.28a8.84,8.84,0,0,0,.65-3.92V30.87h1.66a3.47,3.47,0,0,1,2.09.6,6.21,6.21,0,0,1,1.64,2.24,39.48,39.48,0,0,1,1.82,4.75l1.9,5.67c.45,1.34.8,2.35,1.06,3a6.08,6.08,0,0,0,.94,1.7,1.64,1.64,0,0,0,1.34.67,1.67,1.67,0,0,0,1.18-.47,3.06,3.06,0,0,0,.8-1.29,4.7,4.7,0,0,0,.3-1.64,15.81,15.81,0,0,0-.5-2.94C327.57,41.78,327.1,40.18,326.5,38.42Zm-5.7-14.18a6.84,6.84,0,0,1-2.87.53h-4.25V13.23h4.37a5.83,5.83,0,0,1,3.27.63,4.28,4.28,0,0,1,1.38,2,8.85,8.85,0,0,1,.49,3.08,8.22,8.22,0,0,1-.61,3.51A3.63,3.63,0,0,1,320.8,24.24Z" transform="translate(0)"/><path class="cls-2" d="M348.84,10.66a7.66,7.66,0,0,0-3.12-3,9.83,9.83,0,0,0-4.14-.8h-6.17a2.36,2.36,0,0,0-2.22,1.23,8.72,8.72,0,0,0-.68,4V42.84a21.25,21.25,0,0,0,.2,3.31,3.62,3.62,0,0,0,.85,2,2.58,2.58,0,0,0,1.95.7h6.17a10.79,10.79,0,0,0,2.9-.37,6.86,6.86,0,0,0,2.4-1.29,9.56,9.56,0,0,0,2-2.44,19.51,19.51,0,0,0,2-4.48,32.75,32.75,0,0,0,1.13-5.63,60.39,60.39,0,0,0,.37-6.9Q352.5,16.27,348.84,10.66Zm-3.52,29.43a4,4,0,0,1-1.25,1.29,3.82,3.82,0,0,1-1.38.58,12.65,12.65,0,0,1-1.86.11h-3.58V13.58h3.12a7.58,7.58,0,0,1,3.7.84c1,.56,1.88,1.88,2.58,3.94a30.91,30.91,0,0,1,1,9.31Q347.69,36.49,345.32,40.09Z" transform="translate(0)"/><path class="cls-2" d="M232.88,42.53H220.45a2.06,2.06,0,0,1-2.14-2V31.12a2.07,2.07,0,0,1,2.14-2h10.71a2,2,0,1,0,0-4H220.45a2.07,2.07,0,0,1-2.14-2V15.4a2.07,2.07,0,0,1,2.14-2H232a2.07,2.07,0,0,0,2.14-2v-.06a2.07,2.07,0,0,0-2.14-2H215.47a2.06,2.06,0,0,0-2.13,2V44.58a2.06,2.06,0,0,0,2.13,2h17.41a2.07,2.07,0,0,0,2.14-2v-.06A2.07,2.07,0,0,0,232.88,42.53Z" transform="translate(0)"/><text class="cls-3" transform="translate(177.55 89.41) scale(0.51 1)">P<tspan class="cls-4" x="36.27" y="0">r</tspan><tspan class="cls-5" x="61.18" y="0">oductions</tspan></text><rect x="0.09" y="90.86" width="41.86" height="15.29" rx="5.57" transform="translate(-1.07 0.24) rotate(-0.62)"/><rect class="cls-6" x="0.04" y="73.6" width="41.86" height="15.29" rx="6.61" transform="translate(-0.88 0.23) rotate(-0.62)"/><rect class="cls-7" y="56.34" width="41.86" height="15.29" rx="7.64" transform="translate(-0.7 0.23) rotate(-0.62)"/><rect x="43.88" y="91.19" width="41.86" height="14.74" rx="4.6" transform="translate(-1.07 0.71) rotate(-0.62)"/><rect class="cls-8" x="43.85" y="74.39" width="41.86" height="14.74" rx="5.3" transform="translate(-0.89 0.71) rotate(-0.62)"/><rect class="cls-6" x="43.82" y="57.59" width="41.86" height="14.74" rx="5.99" transform="translate(-0.7 0.71) rotate(-0.62)"/><rect class="cls-9" x="43.79" y="40.79" width="41.86" height="14.74" rx="6.68" transform="translate(-0.52 0.71) rotate(-0.62)"/><rect class="cls-7" x="43.76" y="23.99" width="41.86" height="14.74" rx="7.37" transform="translate(-0.34 0.71) rotate(-0.62)"/><rect x="88.09" y="90.44" width="41.86" height="15.29" rx="5.17" transform="translate(-1.06 1.19) rotate(-0.62)"/><rect class="cls-10" x="87.96" y="73.18" width="41.86" height="15.29" rx="5.67" transform="matrix(1, -0.01, 0.01, 1, -0.87, 1.19)"/><rect class="cls-11" x="87.83" y="55.91" width="41.86" height="15.29" rx="6.16" transform="translate(-0.69 1.19) rotate(-0.62)"/><rect class="cls-12" x="87.7" y="38.64" width="41.86" height="15.29" rx="6.66" transform="translate(-0.5 1.19) rotate(-0.62)"/><rect class="cls-13" x="87.57" y="21.37" width="41.86" height="15.29" rx="7.15" transform="translate(-0.31 1.19) rotate(-0.62)"/><rect class="cls-7" x="87.44" y="4.1" width="41.86" height="15.29" rx="7.64" transform="translate(-0.12 1.18) rotate(-0.62)"/><rect x="131.64" y="90.26" width="41.86" height="15.29" rx="6.33" transform="translate(-1.06 1.67) rotate(-0.62)"/><rect class="cls-6" x="131.54" y="73.18" width="41.86" height="15.29" rx="6.99" transform="translate(-0.87 1.67) rotate(-0.62)"/><rect class="cls-7" x="131.44" y="56.1" width="41.86" height="15.29" rx="7.64" transform="matrix(1, -0.01, 0.01, 1, -0.69, 1.67)"/></g></g></svg>