<svg xmlns="http://www.w3.org/2000/svg" viewBox="0 0 79.35 50.5"><defs><style>.cls-1{fill:#fff;stroke:#000;stroke-miterlimit:10;stroke-width:0.5px;}</style></defs><g id="Layer_2" data-name="Layer 2"><g id="Layer_2-2" data-name="Layer 2"><polygon class="cls-1" points="62.06 43.04 60.35 44.48 19.96 44.48 18.53 43.04 0.25 43.04 0.25 50.25 79.1 50.25 79.1 43.04 62.06 43.04"/><path class="cls-1" d="M27.65,43l4.81-12.5v12h7.69v-25c-3.47-.18-7-.07-8.65.93C26.09,21.83,20,41.12,20,41.12L21.4,43Z"/><path class="cls-1" d="M47.85,30.54,52.65,43H58.9l1.45-1.92s-6.13-19.29-11.54-22.6c-1.63-1-5.19-1.11-8.65-.93v25h7.7Z"/><path class="cls-1" d="M39.91,17.56A8.66,8.66,0,1,0,31.26,8.9,8.66,8.66,0,0,0,39.91,17.56Zm0-5.53a2.17,2.17,0,1,1-2.16,2.16A2.17,2.17,0,0,1,39.91,12Z"/></g></g></svg>