<svg xmlns="http://www.w3.org/2000/svg" viewBox="0 0 164 104"><defs><style>.cls-1{fill:#fff;}</style></defs><g id="Layer_2" data-name="Layer 2"><g id="Layer_2-2" data-name="Layer 2"><path class="cls-1" d="M84,24.31a1.5,1.5,0,0,0,0-3,1.5,1.5,0,0,0,0,3Z"/><path class="cls-1" d="M69,17.74A6.3,6.3,0,0,1,69.63,19a9.29,9.29,0,0,0,1,1.37c.72.89,1.5,1.75,2.27,2.61,1.57,1.74,3.23,3.4,4.93,5s3.16,3.29,4.83,4.83a13.73,13.73,0,0,1,2.18,2.33A7,7,0,0,0,87,37.38c1.65,1,3.16-1.59,1.51-2.59a6.37,6.37,0,0,1-1.66-1.91,17.54,17.54,0,0,0-2.35-2.37c-1.67-1.52-3.19-3.26-4.83-4.84S76.46,22.54,75,20.89c-.75-.84-1.55-1.67-2.23-2.56a26.52,26.52,0,0,0-1.66-2.71c-1.33-1.4-3.45.72-2.12,2.12Z"/><polygon points="164 104 0 104 0 89 38.02 89 41 92 125 92 128.57 89 164 89 164 104"/><path d="M83,88H67V63L57,89H44l-3-4S53.75,44.89,65,38c3.38-2.07,10.78-2.32,18-1.94"/><path d="M83,88H99V63l10,26h13l3-4s-12.75-40.11-24-47c-3.38-2.07-10.78-2.32-18-1.94"/><path d="M82.5,0a18,18,0,1,0,18,18A18,18,0,0,0,82.5,0Zm0,33.5A4.5,4.5,0,1,1,87,29,4.49,4.49,0,0,1,82.5,33.5Z"/></g></g></svg>